<svg width="35" height="32" viewBox="0 0 35 32" fill="none" xmlns="http://www.w3.org/2000/svg">
<path d="M0 6.39017V25.6098C0 27.3794 0.732341 28.9524 1.90409 30.1813C3.07583 31.361 4.58933 32 6.34695 32H15.9162V28.0184H6.34695C5.02874 28.0184 4.00346 26.937 4.00346 25.6098V6.39017C4.00346 5.06298 5.02874 4.03072 6.34695 4.03072H15.9162V0H6.34695C4.58933 0 3.07583 0.688172 1.90409 1.8679C0.732341 3.09677 0 4.62058 0 6.39017ZM10.4969 12.1905V19.8587C10.4969 20.7435 11.278 21.4808 12.1569 21.4808H20.9938V27.5269C20.9938 28.0676 21.2867 28.51 21.7749 28.7558C21.9702 28.8049 22.1655 28.8049 22.2632 28.8049C22.6049 28.8049 22.8979 28.7066 23.142 28.4608L34.6153 16.9094C35.1524 16.467 35.1035 15.5822 34.6153 15.0906L23.142 3.58833C22.4584 2.851 20.9938 3.29339 20.9938 4.47312V10.5684H12.1569C11.278 10.5684 10.4969 11.3057 10.4969 12.1905Z" fill="white"/>
</svg>
